<?xml version="1.0" encoding="UTF-8"?>
<svg xmlns="http://www.w3.org/2000/svg" xmlns:xlink="http://www.w3.org/1999/xlink"
     width="10000" height="10000.0" viewBox="0 0 80 80" id-prefex="box">
<defs>
</defs>
<rect x="0" y="0" width="10" height="10" fill="rgb(73,73,73)" />
<rect x="10" y="0" width="20" height="10" fill="rgb(82,82,82)" />
<rect x="20" y="0" width="30" height="10" fill="rgb(75,75,75)" />
<rect x="30" y="0" width="40" height="10" fill="rgb(71,71,71)" />
<rect x="40" y="0" width="50" height="10" fill="rgb(83,83,83)" />
<rect x="50" y="0" width="60" height="10" fill="rgb(84,84,84)" />
<rect x="60" y="0" width="70" height="10" fill="rgb(75,75,75)" />
<rect x="70" y="0" width="80" height="10" fill="rgb(82,82,82)" />
<rect x="0" y="10" width="10" height="20" fill="rgb(75,75,75)" />
<rect x="10" y="10" width="20" height="20" fill="rgb(78,78,78)" />
<rect x="20" y="10" width="30" height="20" fill="rgb(68,68,68)" />
<rect x="30" y="10" width="40" height="20" fill="rgb(72,72,72)" />
<rect x="40" y="10" width="50" height="20" fill="rgb(81,81,81)" />
<rect x="50" y="10" width="60" height="20" fill="rgb(83,83,83)" />
<rect x="60" y="10" width="70" height="20" fill="rgb(75,75,75)" />
<rect x="70" y="10" width="80" height="20" fill="rgb(84,84,84)" />
<rect x="0" y="20" width="10" height="30" fill="rgb(75,75,75)" />
<rect x="10" y="20" width="20" height="30" fill="rgb(82,82,82)" />
<rect x="20" y="20" width="30" height="30" fill="rgb(74,74,74)" />
<rect x="30" y="20" width="40" height="30" fill="rgb(88,88,88)" />
<rect x="40" y="20" width="50" height="30" fill="rgb(87,87,87)" />
<rect x="50" y="20" width="60" height="30" fill="rgb(85,85,85)" />
<rect x="60" y="20" width="70" height="30" fill="rgb(50,50,50)" />
<rect x="70" y="20" width="80" height="30" fill="rgb(88,88,88)" />
<rect x="0" y="30" width="10" height="40" fill="rgb(71,71,71)" />
<rect x="10" y="30" width="20" height="40" fill="rgb(77,77,77)" />
<rect x="20" y="30" width="30" height="40" fill="rgb(90,90,90)" />
<rect x="30" y="30" width="40" height="40" fill="rgb(86,86,86)" />
<rect x="40" y="30" width="50" height="40" fill="rgb(73,73,73)" />
<rect x="50" y="30" width="60" height="40" fill="rgb(83,83,83)" />
<rect x="60" y="30" width="70" height="40" fill="rgb(66,66,66)" />
<rect x="70" y="30" width="80" height="40" fill="rgb(81,81,81)" />
<rect x="0" y="40" width="10" height="50" fill="rgb(74,74,74)" />
<rect x="10" y="40" width="20" height="50" fill="rgb(85,85,85)" />
<rect x="20" y="40" width="30" height="50" fill="rgb(90,90,90)" />
<rect x="30" y="40" width="40" height="50" fill="rgb(85,85,85)" />
<rect x="40" y="40" width="50" height="50" fill="rgb(71,71,71)" />
<rect x="50" y="40" width="60" height="50" fill="rgb(77,77,77)" />
<rect x="60" y="40" width="70" height="50" fill="rgb(67,67,67)" />
<rect x="70" y="40" width="80" height="50" fill="rgb(77,77,77)" />
<rect x="0" y="50" width="10" height="60" fill="rgb(71,71,71)" />
<rect x="10" y="50" width="20" height="60" fill="rgb(66,66,66)" />
<rect x="20" y="50" width="30" height="60" fill="rgb(74,74,74)" />
<rect x="30" y="50" width="40" height="60" fill="rgb(69,69,69)" />
<rect x="40" y="50" width="50" height="60" fill="rgb(67,67,67)" />
<rect x="50" y="50" width="60" height="60" fill="rgb(82,82,82)" />
<rect x="60" y="50" width="70" height="60" fill="rgb(66,66,66)" />
<rect x="70" y="50" width="80" height="60" fill="rgb(81,81,81)" />
<rect x="0" y="60" width="10" height="70" fill="rgb(80,80,80)" />
<rect x="10" y="60" width="20" height="70" fill="rgb(86,86,86)" />
<rect x="20" y="60" width="30" height="70" fill="rgb(90,90,90)" />
<rect x="30" y="60" width="40" height="70" fill="rgb(85,85,85)" />
<rect x="40" y="60" width="50" height="70" fill="rgb(81,81,81)" />
<rect x="50" y="60" width="60" height="70" fill="rgb(53,53,53)" />
<rect x="60" y="60" width="70" height="70" fill="rgb(84,84,84)" />
<rect x="70" y="60" width="80" height="70" fill="rgb(66,66,66)" />
<rect x="0" y="70" width="10" height="80" fill="rgb(79,79,79)" />
<rect x="10" y="70" width="20" height="80" fill="rgb(73,73,73)" />
<rect x="20" y="70" width="30" height="80" fill="rgb(61,61,61)" />
<rect x="30" y="70" width="40" height="80" fill="rgb(61,61,61)" />
<rect x="40" y="70" width="50" height="80" fill="rgb(61,61,61)" />
<rect x="50" y="70" width="60" height="80" fill="rgb(61,61,61)" />
<rect x="60" y="70" width="70" height="80" fill="rgb(61,61,61)" />
<rect x="70" y="70" width="80" height="80" fill="rgb(61,61,61)" />
</svg>